<?xml version="1.0" standalone="no"?>
<!DOCTYPE svg PUBLIC "-//W3C//DTD SVG 20010904//EN"
 "http://www.w3.org/TR/2001/REC-SVG-20010904/DTD/svg10.dtd">
<svg version="1.0" xmlns="http://www.w3.org/2000/svg"
 width="896.000000pt" height="896.000000pt" viewBox="0 0 896.000000 896.000000"
 preserveAspectRatio="xMidYMid meet">
<metadata>
Created by potrace 1.14, written by Peter Selinger 2001-2017
</metadata>
<g transform="translate(0.000000,896.000000) scale(0.100000,-0.100000)"
fill="#000000" stroke="none">
<path d="M1597 8314 c-1 -1 -27 -4 -57 -8 -30 -3 -66 -8 -80 -11 -14 -3 -40
-8 -59 -11 -19 -3 -46 -10 -60 -16 -14 -5 -26 -9 -26 -8 0 1 -7 -1 -15 -4 -8
-3 -37 -12 -63 -21 -27 -8 -62 -22 -78 -30 -16 -9 -29 -12 -29 -8 0 5 -4 4 -8
-2 -4 -5 -38 -26 -77 -45 -104 -52 -219 -138 -322 -241 -51 -51 -93 -95 -93
-99 0 -4 -10 -18 -21 -31 -88 -100 -219 -367 -242 -494 -2 -11 -7 -27 -10 -35
-17 -46 -31 -178 -31 -305 0 -129 15 -267 36 -325 7 -17 97 -337 103 -361 5
-25 27 -103 33 -119 3 -8 6 -19 7 -25 2 -5 10 -35 19 -66 9 -31 19 -65 21 -75
3 -11 14 -50 25 -89 12 -38 22 -74 24 -80 6 -25 38 -132 43 -145 3 -8 7 -28 9
-44 2 -16 9 -35 16 -43 6 -7 8 -16 5 -19 -3 -4 0 -23 8 -43 12 -30 20 -56 41
-136 9 -31 37 -132 41 -145 2 -8 4 -16 4 -17 0 -2 6 -21 14 -43 8 -22 12 -40
9 -40 -2 0 0 -9 6 -21 6 -11 13 -28 15 -37 3 -19 25 -97 50 -182 9 -30 18 -63
20 -73 2 -9 6 -21 9 -25 3 -5 7 -21 10 -37 3 -15 14 -59 26 -96 11 -38 29
-100 40 -137 11 -37 22 -76 25 -87 7 -32 21 -82 60 -215 35 -121 54 -186 94
-327 11 -38 38 -133 61 -213 52 -182 59 -209 66 -239 3 -14 7 -28 10 -33 4 -6
19 -56 38 -133 2 -5 6 -17 9 -25 8 -21 78 -272 82 -290 1 -8 5 -22 8 -30 3 -8
12 -35 18 -60 7 -25 13 -47 14 -50 1 -3 7 -25 14 -50 7 -25 17 -58 22 -75 10
-32 90 -313 94 -330 1 -5 4 -17 8 -25 3 -8 11 -37 18 -65 6 -27 15 -54 19 -60
3 -5 6 -17 5 -25 -1 -8 3 -23 8 -33 4 -10 10 -26 12 -35 7 -30 65 -237 72
-252 3 -8 7 -19 7 -25 1 -5 11 -35 23 -65 25 -65 33 -88 32 -96 0 -4 4 -10 9
-13 5 -3 21 -30 36 -59 84 -166 219 -324 387 -451 164 -125 418 -233 604 -257
28 -3 59 -8 70 -10 25 -6 250 -5 285 0 14 3 45 7 70 10 173 23 401 112 560
219 139 92 266 222 388 393 25 36 82 146 82 159 0 8 4 15 8 15 5 0 17 25 28
56 10 31 27 62 37 68 9 6 17 16 17 23 0 7 4 13 8 13 5 0 17 16 28 35 10 19 22
35 26 35 5 0 8 5 8 11 0 6 11 25 25 43 14 18 25 36 25 40 0 4 5 12 10 19 15
18 90 137 90 143 0 3 18 32 40 64 22 32 40 64 40 69 0 6 5 11 10 11 6 0 10 7
10 15 0 8 5 15 10 15 6 0 10 5 10 11 0 6 14 30 30 54 17 24 30 48 30 54 0 6 4
11 9 11 5 0 11 6 13 12 2 7 49 87 106 178 57 91 109 174 115 184 7 11 28 45
47 75 52 83 58 94 69 117 5 12 13 23 18 25 4 2 16 20 27 39 10 19 32 57 49 84
l31 48 21 -68 c12 -38 26 -82 30 -99 8 -30 12 -43 18 -67 2 -7 7 -20 10 -28 4
-8 8 -26 11 -40 2 -14 14 -56 26 -95 38 -129 50 -170 55 -190 2 -11 13 -51 25
-90 12 -38 33 -113 46 -165 14 -52 28 -98 30 -102 3 -4 7 -16 9 -25 1 -10 17
-67 35 -128 18 -60 34 -117 36 -125 17 -69 76 -269 84 -282 6 -10 10 -23 10
-29 0 -13 98 -221 108 -229 4 -3 13 -16 20 -30 53 -104 254 -315 367 -386 17
-10 32 -21 35 -24 16 -19 180 -103 275 -141 76 -30 215 -64 315 -76 103 -13
314 -7 410 12 113 23 223 55 271 81 14 7 28 11 31 8 3 -2 11 2 18 11 7 8 19
15 26 15 7 0 28 8 46 18 71 41 143 87 146 94 2 4 9 8 15 8 6 0 38 23 71 52
166 141 277 281 360 453 36 74 46 96 66 150 12 30 37 116 44 150 4 17 9 41 12
55 25 116 24 480 -1 521 -2 3 -7 19 -10 35 -3 16 -12 54 -21 84 -20 72 -45
161 -50 180 -2 8 -13 47 -24 85 -12 39 -37 126 -56 195 -19 69 -39 139 -44
155 -5 17 -19 64 -31 105 -12 41 -28 96 -35 121 -8 25 -16 56 -19 68 -2 13
-14 55 -26 95 -34 113 -39 131 -39 138 -1 4 -7 26 -15 48 -8 22 -14 41 -14 43
0 1 -2 9 -5 17 -6 21 -20 73 -21 85 -1 6 -5 17 -8 25 -3 8 -12 40 -21 70 -9
30 -34 120 -57 200 -23 80 -42 150 -44 155 -1 6 -5 17 -8 25 -4 8 -9 26 -11
40 -3 14 -37 135 -76 270 -39 135 -73 254 -76 265 -3 11 -7 27 -9 35 -2 8 -4
15 -5 15 -1 0 -3 7 -5 15 -1 8 -14 56 -29 105 -53 184 -104 363 -131 460 -15
55 -31 108 -36 117 -5 10 -9 26 -9 35 0 10 -7 38 -16 63 -13 38 -27 85 -69
240 -2 8 -20 71 -40 140 -20 69 -40 139 -45 155 -4 17 -22 80 -39 140 -17 61
-36 126 -41 145 -5 19 -19 64 -30 99 -11 35 -20 72 -20 81 0 9 -3 20 -7 24 -4
4 -9 19 -11 34 -2 14 -8 32 -14 39 -6 7 -8 13 -5 13 2 0 -6 37 -20 83 -13 45
-25 87 -27 94 -1 7 -5 16 -9 19 -4 4 -7 16 -7 27 0 12 -4 34 -10 51 -73 231
-129 352 -226 487 -62 87 -224 259 -243 259 -6 0 -11 3 -11 8 0 4 -18 18 -40
32 -22 14 -40 28 -40 31 0 4 -13 12 -30 19 -16 7 -30 16 -30 21 0 5 -6 9 -13
9 -7 0 -29 11 -50 25 -20 14 -37 22 -37 18 0 -4 -4 -3 -8 3 -8 12 -174 79
-234 95 -107 26 -171 38 -248 44 -25 2 -47 4 -50 5 -13 3 -188 0 -210 -4 -14
-2 -45 -7 -70 -10 -187 -24 -416 -113 -574 -224 -28 -19 -52 -39 -54 -44 -2
-4 -8 -8 -13 -8 -20 0 -175 -150 -225 -216 -16 -22 -34 -45 -41 -51 -6 -7 -21
-29 -34 -50 -13 -21 -27 -41 -32 -44 -5 -3 -9 -10 -10 -15 -2 -21 -59 -109
-121 -189 -24 -30 -60 -87 -92 -141 -15 -27 -31 -51 -35 -54 -3 -3 -14 -18
-23 -35 -9 -16 -25 -43 -36 -60 -11 -16 -23 -37 -27 -45 -4 -8 -22 -36 -40
-62 -18 -27 -30 -48 -26 -48 5 0 3 -4 -2 -8 -14 -9 -115 -170 -115 -181 0 -5
-3 -11 -8 -13 -4 -1 -28 -36 -52 -77 -25 -40 -54 -88 -65 -106 -11 -18 -33
-55 -49 -82 -16 -26 -32 -50 -36 -53 -4 -3 -17 -23 -29 -45 -26 -49 -39 -71
-68 -112 -13 -17 -23 -36 -23 -42 0 -6 -4 -11 -10 -11 -5 0 -10 -6 -10 -14 0
-7 -7 -19 -15 -26 -8 -7 -12 -16 -9 -21 3 -5 1 -9 -3 -9 -8 0 -42 -53 -106
-163 -10 -18 -25 -39 -33 -47 -12 -12 -14 -11 -14 11 0 14 -3 29 -7 33 -4 3
-8 12 -9 19 -1 7 -7 32 -15 57 -7 25 -14 50 -15 55 -1 6 -12 44 -24 85 -12 41
-23 82 -25 90 -8 31 -67 236 -72 250 -3 8 -7 20 -9 25 -21 86 -90 326 -101
355 -4 8 -5 19 -4 23 0 4 -3 16 -8 26 -6 10 -12 30 -15 46 -3 15 -14 59 -26
96 -39 133 -59 204 -66 234 -4 17 -11 36 -17 43 -5 6 -6 12 -1 12 4 0 3 5 -4
12 -7 7 -12 18 -12 26 0 32 -116 245 -181 332 -71 96 -243 270 -266 270 -7 0
-13 4 -13 8 0 8 -118 88 -135 92 -5 1 -21 10 -35 20 -83 59 -315 135 -480 156
-49 6 -267 13 -273 8z"/>
</g>
</svg>
